<svg xmlns="http://www.w3.org/2000/svg" xmlns:xlink="http://www.w3.org/1999/xlink" width="800" zoomAndPan="magnify" viewBox="0 0 600 599.999999" height="800" preserveAspectRatio="xMidYMid meet" version="1.0"><defs><filter x="0%" y="0%" width="100%" height="100%" id="80b13df52f"><feColorMatrix values="0 0 0 0 1 0 0 0 0 1 0 0 0 0 1 0 0 0 1 0" color-interpolation-filters="sRGB"/></filter><clipPath id="a35e25f1eb"><path d="M 311.09375 151.363281 L 574.34375 151.363281 L 574.34375 418.363281 L 311.09375 418.363281 Z M 311.09375 151.363281 " clip-rule="nonzero"/></clipPath><clipPath id="71d25f4702"><path d="M 150 151.363281 L 182 151.363281 L 182 183 L 150 183 Z M 150 151.363281 " clip-rule="nonzero"/></clipPath><clipPath id="45ffba2ad3"><path d="M 150 387 L 182 387 L 182 418.363281 L 150 418.363281 Z M 150 387 " clip-rule="nonzero"/></clipPath><clipPath id="9461e2d6af"><path d="M 268 269 L 299.847656 269 L 299.847656 301 L 268 301 Z M 268 269 " clip-rule="nonzero"/></clipPath><clipPath id="477da88bc1"><path d="M 32.847656 269 L 64 269 L 64 301 L 32.847656 301 Z M 32.847656 269 " clip-rule="nonzero"/></clipPath><mask id="cf18b5caad"><g filter="url(#80b13df52f)"><rect x="-60" width="720" fill="#000000" y="-60" height="719.999999" fill-opacity="0.2"/></g></mask><clipPath id="0b2e89e492"><path d="M 1 0.320312 L 117.878906 0.320312 L 117.878906 117.441406 L 1 117.441406 Z M 1 0.320312 " clip-rule="nonzero"/></clipPath><clipPath id="e0371977bd"><rect x="0" width="118" y="0" height="118"/></clipPath><mask id="ab3da20f16"><g filter="url(#80b13df52f)"><rect x="-60" width="720" fill="#000000" y="-60" height="719.999999" fill-opacity="0.2"/></g></mask><clipPath id="ad1395b425"><path d="M 0.28125 0.839844 L 93.640625 0.839844 L 93.640625 81 L 0.28125 81 Z M 0.28125 0.839844 " clip-rule="nonzero"/></clipPath><clipPath id="0a56bc42bd"><rect x="0" width="94" y="0" height="82"/></clipPath></defs><g clip-path="url(#a35e25f1eb)"><path fill="#000000" d="M 500.574219 358.984375 C 521.015625 358.984375 539.527344 350.695312 552.929688 337.292969 C 566.292969 323.929688 574.5625 305.421875 574.5625 284.933594 C 574.5625 264.445312 566.292969 245.9375 552.929688 232.574219 C 539.527344 219.175781 521.015625 210.882812 500.574219 210.882812 C 480.128906 210.882812 461.617188 219.175781 448.214844 232.574219 C 434.816406 245.980469 426.519531 264.492188 426.519531 284.933594 C 426.519531 296.363281 421.886719 306.707031 414.402344 314.195312 C 406.875 321.722656 396.523438 326.378906 385.140625 326.378906 L 385.140625 326.316406 C 373.714844 326.316406 363.371094 321.683594 355.878906 314.195312 C 348.398438 306.710938 343.765625 296.375 343.761719 284.960938 L 343.761719 284.851562 C 343.78125 273.460938 348.414062 263.144531 355.878906 255.671875 C 363.371094 248.183594 373.714844 243.554688 385.140625 243.554688 C 396.566406 243.554688 406.910156 248.183594 414.402344 255.671875 C 416.082031 257.355469 417.617188 259.179688 418.996094 261.128906 C 422.246094 249.957031 427.789062 239.535156 435.335938 230.5 C 422.144531 218.324219 404.507812 210.882812 385.140625 210.882812 C 369.820312 210.882812 355.574219 215.542969 343.761719 223.519531 L 343.761719 167.71875 C 343.761719 158.695312 336.449219 151.382812 327.425781 151.382812 C 318.402344 151.382812 311.09375 158.695312 311.09375 167.71875 L 311.09375 284.933594 C 311.09375 305.378906 319.382812 323.890625 332.78125 337.292969 C 346.179688 350.695312 364.699219 358.984375 385.140625 358.984375 L 385.140625 358.921875 C 405.628906 358.921875 424.140625 350.652344 437.5 337.292969 C 450.898438 323.890625 459.1875 305.378906 459.1875 284.933594 L 459.195312 284.933594 L 459.195312 284.921875 C 459.195312 273.5 463.828125 263.160156 471.3125 255.671875 C 478.800781 248.183594 489.144531 243.554688 500.574219 243.554688 C 512 243.554688 522.34375 248.183594 529.835938 255.671875 C 537.363281 263.203125 542.015625 273.550781 542.015625 284.933594 C 542.015625 296.316406 537.363281 306.667969 529.835938 314.195312 C 522.34375 321.683594 512 326.316406 500.574219 326.316406 C 489.144531 326.316406 478.800781 321.683594 471.3125 314.195312 C 469.621094 312.507812 468.078125 310.667969 466.699219 308.710938 C 463.449219 319.882812 457.914062 330.3125 450.359375 339.351562 C 448.726562 341.296875 447.007812 343.179688 445.203125 344.992188 C 439.589844 350.597656 433.304688 355.328125 426.519531 359.105469 L 426.519531 402.148438 C 426.519531 411.167969 433.839844 418.484375 442.855469 418.484375 C 451.878906 418.484375 459.195312 411.171875 459.195312 402.148438 L 459.195312 346.34375 C 471.011719 354.324219 485.246094 358.984375 500.574219 358.984375 Z M 500.574219 358.984375 " fill-opacity="1" fill-rule="nonzero"/></g><path fill="#000000" d="M 88.765625 235.238281 C 88.765625 236.257812 88.664062 237.269531 88.46875 238.269531 C 88.269531 239.269531 87.972656 240.238281 87.582031 241.183594 C 87.191406 242.125 86.714844 243.019531 86.148438 243.867188 C 85.582031 244.714844 84.9375 245.5 84.214844 246.222656 C 83.496094 246.941406 82.710938 247.585938 81.863281 248.152344 C 81.015625 248.71875 80.117188 249.199219 79.175781 249.585938 C 78.234375 249.976562 77.261719 250.273438 76.261719 250.472656 C 75.261719 250.671875 74.253906 250.769531 73.234375 250.769531 C 72.214844 250.769531 71.203125 250.671875 70.203125 250.472656 C 69.203125 250.273438 68.230469 249.976562 67.289062 249.585938 C 66.347656 249.199219 65.453125 248.71875 64.601562 248.152344 C 63.753906 247.585938 62.972656 246.941406 62.25 246.222656 C 61.527344 245.5 60.882812 244.714844 60.316406 243.867188 C 59.75 243.019531 59.273438 242.125 58.882812 241.183594 C 58.492188 240.238281 58.199219 239.269531 58 238.269531 C 57.800781 237.269531 57.699219 236.257812 57.699219 235.238281 C 57.699219 234.21875 57.800781 233.207031 58 232.207031 C 58.199219 231.207031 58.492188 230.234375 58.882812 229.292969 C 59.273438 228.351562 59.75 227.457031 60.316406 226.609375 C 60.882812 225.761719 61.527344 224.976562 62.25 224.253906 C 62.972656 223.535156 63.753906 222.890625 64.601562 222.324219 C 65.453125 221.757812 66.347656 221.277344 67.289062 220.886719 C 68.230469 220.496094 69.203125 220.203125 70.203125 220.003906 C 71.203125 219.804688 72.214844 219.707031 73.234375 219.707031 C 74.253906 219.707031 75.261719 219.804688 76.261719 220.003906 C 77.261719 220.203125 78.234375 220.496094 79.175781 220.886719 C 80.117188 221.277344 81.015625 221.757812 81.863281 222.324219 C 82.710938 222.890625 83.496094 223.535156 84.214844 224.253906 C 84.9375 224.976562 85.582031 225.761719 86.148438 226.609375 C 86.714844 227.457031 87.191406 228.351562 87.582031 229.292969 C 87.972656 230.234375 88.269531 231.207031 88.46875 232.207031 C 88.664062 233.207031 88.765625 234.21875 88.765625 235.238281 Z M 88.765625 235.238281 " fill-opacity="1" fill-rule="nonzero"/><path fill="#000000" d="M 116.722656 263.195312 C 116.722656 263.609375 116.644531 264.003906 116.484375 264.382812 C 116.328125 264.765625 116.105469 265.101562 115.8125 265.390625 C 115.523438 265.683594 115.1875 265.90625 114.804688 266.066406 C 114.425781 266.222656 114.027344 266.300781 113.617188 266.300781 L 94.976562 266.300781 C 94.480469 266.300781 94.007812 266.1875 93.5625 265.960938 C 93.121094 265.734375 92.75 265.421875 92.460938 265.015625 L 80.75 248.859375 C 80.746094 248.855469 80.738281 248.84375 80.734375 248.839844 C 80.507812 248.523438 80.347656 248.175781 80.25 247.796875 C 80.15625 247.421875 80.132812 247.039062 80.179688 246.652344 C 80.226562 246.265625 80.34375 245.902344 80.527344 245.558594 C 80.714844 245.214844 80.953125 244.917969 81.25 244.667969 C 81.546875 244.414062 81.878906 244.226562 82.246094 244.097656 C 82.617188 243.972656 82.996094 243.917969 83.382812 243.933594 C 83.773438 243.949219 84.144531 244.03125 84.5 244.1875 C 84.859375 244.34375 85.175781 244.558594 85.449219 244.835938 C 85.570312 244.949219 85.679688 245.078125 85.777344 245.210938 L 96.558594 260.09375 L 113.617188 260.09375 C 114.027344 260.089844 114.425781 260.171875 114.804688 260.328125 C 115.1875 260.484375 115.523438 260.710938 115.8125 261 C 116.105469 261.292969 116.328125 261.628906 116.484375 262.007812 C 116.644531 262.386719 116.722656 262.785156 116.722656 263.195312 Z M 116.722656 263.195312 " fill-opacity="1" fill-rule="nonzero"/><path fill="#000000" d="M 275.15625 235.238281 C 275.15625 236.257812 275.054688 237.269531 274.855469 238.269531 C 274.65625 239.269531 274.363281 240.238281 273.972656 241.183594 C 273.582031 242.125 273.105469 243.019531 272.539062 243.867188 C 271.972656 244.714844 271.328125 245.5 270.605469 246.222656 C 269.886719 246.941406 269.101562 247.585938 268.253906 248.152344 C 267.402344 248.71875 266.507812 249.199219 265.566406 249.585938 C 264.625 249.976562 263.652344 250.273438 262.652344 250.472656 C 261.652344 250.671875 260.644531 250.769531 259.621094 250.769531 C 258.601562 250.769531 257.59375 250.671875 256.59375 250.472656 C 255.59375 250.273438 254.621094 249.976562 253.679688 249.585938 C 252.738281 249.199219 251.839844 248.71875 250.992188 248.152344 C 250.144531 247.585938 249.359375 246.941406 248.640625 246.222656 C 247.917969 245.5 247.273438 244.714844 246.707031 243.867188 C 246.140625 243.019531 245.664062 242.125 245.273438 241.183594 C 244.882812 240.238281 244.585938 239.269531 244.390625 238.269531 C 244.191406 237.269531 244.089844 236.257812 244.089844 235.238281 C 244.089844 234.21875 244.191406 233.207031 244.390625 232.207031 C 244.585938 231.207031 244.882812 230.234375 245.273438 229.292969 C 245.664062 228.351562 246.140625 227.457031 246.707031 226.609375 C 247.273438 225.761719 247.917969 224.976562 248.640625 224.253906 C 249.359375 223.535156 250.144531 222.890625 250.992188 222.324219 C 251.839844 221.757812 252.738281 221.277344 253.679688 220.886719 C 254.621094 220.496094 255.59375 220.203125 256.59375 220.003906 C 257.59375 219.804688 258.601562 219.707031 259.621094 219.707031 C 260.644531 219.707031 261.652344 219.804688 262.652344 220.003906 C 263.652344 220.203125 264.625 220.496094 265.566406 220.886719 C 266.507812 221.277344 267.402344 221.757812 268.253906 222.324219 C 269.101562 222.890625 269.886719 223.535156 270.605469 224.253906 C 271.328125 224.976562 271.972656 225.761719 272.539062 226.609375 C 273.105469 227.457031 273.582031 228.351562 273.972656 229.292969 C 274.363281 230.234375 274.65625 231.207031 274.855469 232.207031 C 275.054688 233.207031 275.15625 234.21875 275.15625 235.238281 Z M 275.15625 235.238281 " fill-opacity="1" fill-rule="nonzero"/><path fill="#000000" d="M 252.117188 248.839844 C 252.113281 248.84375 252.109375 248.855469 252.105469 248.859375 L 240.394531 265.015625 C 240.101562 265.421875 239.734375 265.734375 239.289062 265.960938 C 238.847656 266.1875 238.375 266.300781 237.875 266.300781 L 219.238281 266.300781 C 218.824219 266.300781 218.429688 266.222656 218.046875 266.0625 C 217.667969 265.90625 217.332031 265.683594 217.042969 265.390625 C 216.75 265.101562 216.527344 264.765625 216.367188 264.382812 C 216.210938 264.003906 216.132812 263.609375 216.132812 263.195312 C 216.132812 262.785156 216.210938 262.386719 216.367188 262.007812 C 216.527344 261.628906 216.75 261.292969 217.042969 261 C 217.332031 260.710938 217.667969 260.484375 218.046875 260.328125 C 218.429688 260.171875 218.824219 260.09375 219.238281 260.09375 L 236.292969 260.09375 L 247.070312 245.210938 C 247.3125 244.882812 247.609375 244.609375 247.960938 244.394531 C 248.3125 244.183594 248.691406 244.042969 249.097656 243.976562 C 249.503906 243.914062 249.90625 243.929688 250.304688 244.023438 C 250.707031 244.117188 251.074219 244.28125 251.40625 244.519531 C 251.738281 244.761719 252.015625 245.054688 252.230469 245.402344 C 252.445312 245.753906 252.585938 246.128906 252.652344 246.535156 C 252.71875 246.9375 252.707031 247.339844 252.613281 247.738281 C 252.523438 248.136719 252.355469 248.503906 252.117188 248.839844 Z M 252.117188 248.839844 " fill-opacity="1" fill-rule="nonzero"/><path fill="#000000" d="M 275.15625 334.644531 C 275.15625 335.664062 275.054688 336.675781 274.855469 337.675781 C 274.65625 338.675781 274.363281 339.648438 273.972656 340.589844 C 273.582031 341.53125 273.105469 342.425781 272.539062 343.273438 C 271.972656 344.121094 271.328125 344.90625 270.605469 345.628906 C 269.886719 346.351562 269.101562 346.992188 268.253906 347.558594 C 267.402344 348.125 266.507812 348.605469 265.566406 348.996094 C 264.625 349.386719 263.652344 349.679688 262.652344 349.878906 C 261.652344 350.078125 260.644531 350.179688 259.621094 350.179688 C 258.601562 350.179688 257.59375 350.078125 256.59375 349.878906 C 255.59375 349.679688 254.621094 349.386719 253.679688 348.996094 C 252.738281 348.605469 251.839844 348.125 250.992188 347.558594 C 250.144531 346.992188 249.359375 346.351562 248.640625 345.628906 C 247.917969 344.90625 247.273438 344.121094 246.707031 343.273438 C 246.140625 342.425781 245.664062 341.53125 245.273438 340.589844 C 244.882812 339.648438 244.585938 338.675781 244.390625 337.675781 C 244.191406 336.675781 244.089844 335.664062 244.089844 334.644531 C 244.089844 333.625 244.191406 332.617188 244.390625 331.613281 C 244.585938 330.613281 244.882812 329.644531 245.273438 328.703125 C 245.664062 327.757812 246.140625 326.863281 246.707031 326.015625 C 247.273438 325.167969 247.917969 324.382812 248.640625 323.664062 C 249.359375 322.941406 250.144531 322.296875 250.992188 321.730469 C 251.839844 321.164062 252.738281 320.6875 253.679688 320.296875 C 254.621094 319.90625 255.59375 319.609375 256.59375 319.410156 C 257.59375 319.210938 258.601562 319.113281 259.621094 319.113281 C 260.644531 319.113281 261.652344 319.210938 262.652344 319.410156 C 263.652344 319.609375 264.625 319.90625 265.566406 320.296875 C 266.507812 320.6875 267.402344 321.164062 268.253906 321.730469 C 269.101562 322.296875 269.886719 322.941406 270.605469 323.664062 C 271.328125 324.382812 271.972656 325.167969 272.539062 326.015625 C 273.105469 326.863281 273.582031 327.757812 273.972656 328.703125 C 274.363281 329.644531 274.65625 330.613281 274.855469 331.613281 C 275.054688 332.617188 275.15625 333.625 275.15625 334.644531 Z M 275.15625 334.644531 " fill-opacity="1" fill-rule="nonzero"/><path fill="#000000" d="M 251.40625 325.363281 C 251.109375 325.578125 250.78125 325.738281 250.429688 325.835938 C 250.074219 325.9375 249.714844 325.972656 249.347656 325.941406 C 248.980469 325.914062 248.628906 325.824219 248.296875 325.667969 C 247.960938 325.515625 247.664062 325.308594 247.402344 325.050781 C 247.277344 324.933594 247.167969 324.808594 247.070312 324.667969 L 236.292969 309.792969 L 219.238281 309.792969 C 218.824219 309.792969 218.429688 309.714844 218.046875 309.558594 C 217.667969 309.398438 217.332031 309.175781 217.039062 308.882812 C 216.75 308.59375 216.523438 308.257812 216.367188 307.875 C 216.207031 307.496094 216.128906 307.097656 216.128906 306.6875 C 216.128906 306.273438 216.207031 305.878906 216.367188 305.5 C 216.523438 305.117188 216.75 304.78125 217.039062 304.492188 C 217.332031 304.199219 217.667969 303.976562 218.046875 303.816406 C 218.429688 303.660156 218.824219 303.582031 219.238281 303.582031 L 237.875 303.582031 C 238.375 303.582031 238.84375 303.695312 239.289062 303.921875 C 239.734375 304.148438 240.101562 304.460938 240.394531 304.863281 L 252.105469 321.023438 C 252.109375 321.027344 252.113281 321.035156 252.117188 321.042969 C 252.355469 321.375 252.523438 321.742188 252.613281 322.144531 C 252.707031 322.542969 252.71875 322.945312 252.652344 323.347656 C 252.585938 323.753906 252.445312 324.132812 252.230469 324.480469 C 252.015625 324.828125 251.738281 325.125 251.40625 325.363281 Z M 251.40625 325.363281 " fill-opacity="1" fill-rule="nonzero"/><path fill="#000000" d="M 88.765625 334.644531 C 88.765625 335.664062 88.664062 336.675781 88.46875 337.675781 C 88.269531 338.675781 87.972656 339.648438 87.582031 340.589844 C 87.191406 341.53125 86.714844 342.425781 86.148438 343.273438 C 85.582031 344.121094 84.9375 344.90625 84.214844 345.628906 C 83.496094 346.351562 82.710938 346.992188 81.863281 347.558594 C 81.015625 348.125 80.117188 348.605469 79.175781 348.996094 C 78.234375 349.386719 77.261719 349.679688 76.261719 349.878906 C 75.261719 350.078125 74.253906 350.179688 73.234375 350.179688 C 72.214844 350.179688 71.203125 350.078125 70.203125 349.878906 C 69.203125 349.679688 68.230469 349.386719 67.289062 348.996094 C 66.347656 348.605469 65.453125 348.125 64.601562 347.558594 C 63.753906 346.992188 62.972656 346.351562 62.25 345.628906 C 61.527344 344.90625 60.882812 344.121094 60.316406 343.273438 C 59.75 342.425781 59.273438 341.53125 58.882812 340.589844 C 58.492188 339.648438 58.199219 338.675781 58 337.675781 C 57.800781 336.675781 57.699219 335.664062 57.699219 334.644531 C 57.699219 333.625 57.800781 332.617188 58 331.613281 C 58.199219 330.613281 58.492188 329.644531 58.882812 328.703125 C 59.273438 327.757812 59.75 326.863281 60.316406 326.015625 C 60.882812 325.167969 61.527344 324.382812 62.25 323.664062 C 62.972656 322.941406 63.753906 322.296875 64.601562 321.730469 C 65.453125 321.164062 66.347656 320.6875 67.289062 320.296875 C 68.230469 319.90625 69.203125 319.609375 70.203125 319.410156 C 71.203125 319.210938 72.214844 319.113281 73.234375 319.113281 C 74.253906 319.113281 75.261719 319.210938 76.261719 319.410156 C 77.261719 319.609375 78.234375 319.90625 79.175781 320.296875 C 80.117188 320.6875 81.015625 321.164062 81.863281 321.730469 C 82.710938 322.296875 83.496094 322.941406 84.214844 323.664062 C 84.9375 324.382812 85.582031 325.167969 86.148438 326.015625 C 86.714844 326.863281 87.191406 327.757812 87.582031 328.703125 C 87.972656 329.644531 88.269531 330.613281 88.46875 331.613281 C 88.664062 332.617188 88.765625 333.625 88.765625 334.644531 Z M 88.765625 334.644531 " fill-opacity="1" fill-rule="nonzero"/><path fill="#000000" d="M 116.722656 306.683594 C 116.722656 307.097656 116.644531 307.492188 116.488281 307.875 C 116.328125 308.253906 116.105469 308.589844 115.816406 308.882812 C 115.523438 309.175781 115.1875 309.398438 114.804688 309.558594 C 114.425781 309.714844 114.03125 309.792969 113.617188 309.792969 L 96.558594 309.792969 L 85.777344 324.667969 C 85.679688 324.808594 85.570312 324.933594 85.445312 325.050781 C 85.167969 325.324219 84.851562 325.539062 84.496094 325.695312 C 84.140625 325.847656 83.765625 325.933594 83.378906 325.949219 C 82.988281 325.964844 82.609375 325.90625 82.242188 325.78125 C 81.875 325.652344 81.542969 325.464844 81.246094 325.210938 C 80.953125 324.960938 80.710938 324.660156 80.527344 324.320312 C 80.34375 323.976562 80.226562 323.613281 80.179688 323.226562 C 80.132812 322.839844 80.15625 322.457031 80.25 322.082031 C 80.347656 321.703125 80.507812 321.359375 80.734375 321.042969 C 80.738281 321.035156 80.746094 321.027344 80.75 321.023438 L 92.460938 304.863281 C 92.753906 304.460938 93.121094 304.144531 93.5625 303.917969 C 94.007812 303.695312 94.480469 303.582031 94.976562 303.582031 L 113.617188 303.582031 C 114.027344 303.582031 114.425781 303.660156 114.804688 303.816406 C 115.1875 303.972656 115.523438 304.199219 115.8125 304.488281 C 116.105469 304.78125 116.328125 305.117188 116.484375 305.496094 C 116.644531 305.875 116.722656 306.273438 116.722656 306.683594 Z M 116.722656 306.683594 " fill-opacity="1" fill-rule="nonzero"/><path fill="#000000" d="M 169.535156 182.425781 L 169.535156 232.128906 C 169.535156 232.542969 169.457031 232.9375 169.300781 233.320312 C 169.140625 233.699219 168.917969 234.039062 168.625 234.328125 C 168.335938 234.621094 168 234.847656 167.617188 235.003906 C 167.238281 235.164062 166.839844 235.242188 166.425781 235.242188 C 166.015625 235.242188 165.617188 235.164062 165.238281 235.003906 C 164.855469 234.847656 164.519531 234.621094 164.230469 234.328125 C 163.9375 234.039062 163.714844 233.699219 163.554688 233.320312 C 163.398438 232.9375 163.320312 232.542969 163.320312 232.128906 L 163.320312 182.425781 C 163.320312 182.324219 163.324219 182.222656 163.335938 182.117188 C 163.375 181.734375 163.480469 181.371094 163.652344 181.027344 C 163.828125 180.683594 164.058594 180.382812 164.34375 180.125 C 164.628906 179.867188 164.949219 179.667969 165.308594 179.527344 C 165.671875 179.390625 166.042969 179.320312 166.425781 179.320312 C 166.8125 179.320312 167.183594 179.390625 167.542969 179.527344 C 167.902344 179.667969 168.226562 179.867188 168.511719 180.125 C 168.796875 180.382812 169.027344 180.683594 169.203125 181.027344 C 169.375 181.371094 169.480469 181.734375 169.519531 182.117188 C 169.527344 182.222656 169.535156 182.324219 169.535156 182.425781 Z M 169.535156 182.425781 " fill-opacity="1" fill-rule="nonzero"/><path fill="#000000" d="M 147.789062 213.496094 L 147.789062 232.132812 C 147.789062 232.542969 147.710938 232.9375 147.554688 233.320312 C 147.394531 233.699219 147.171875 234.035156 146.878906 234.328125 C 146.589844 234.621094 146.253906 234.84375 145.871094 235 C 145.492188 235.160156 145.09375 235.238281 144.683594 235.238281 C 144.269531 235.238281 143.875 235.160156 143.496094 235 C 143.113281 234.84375 142.777344 234.621094 142.488281 234.328125 C 142.195312 234.035156 141.96875 233.699219 141.8125 233.320312 C 141.65625 232.9375 141.578125 232.542969 141.578125 232.132812 L 141.578125 215.078125 L 126.695312 204.296875 C 126.363281 204.058594 126.085938 203.761719 125.871094 203.410156 C 125.652344 203.0625 125.511719 202.683594 125.445312 202.277344 C 125.378906 201.871094 125.390625 201.464844 125.488281 201.066406 C 125.582031 200.664062 125.746094 200.296875 125.988281 199.960938 C 126.230469 199.628906 126.523438 199.351562 126.875 199.136719 C 127.222656 198.917969 127.601562 198.777344 128.007812 198.710938 C 128.414062 198.644531 128.820312 198.65625 129.21875 198.75 C 129.621094 198.84375 129.988281 199.011719 130.324219 199.253906 C 130.328125 199.257812 130.339844 199.261719 130.34375 199.269531 L 146.507812 210.980469 C 146.910156 211.269531 147.222656 211.640625 147.449219 212.082031 C 147.675781 212.527344 147.789062 212.996094 147.789062 213.496094 Z M 147.789062 213.496094 " fill-opacity="1" fill-rule="nonzero"/><path fill="#000000" d="M 206.539062 203.960938 L 206.539062 203.96875 C 206.539062 203.960938 206.539062 203.960938 206.535156 203.96875 C 206.421875 204.089844 206.292969 204.199219 206.15625 204.296875 L 191.277344 215.074219 L 191.277344 232.128906 C 191.28125 232.542969 191.199219 232.9375 191.042969 233.320312 C 190.886719 233.699219 190.664062 234.039062 190.371094 234.328125 C 190.078125 234.621094 189.742188 234.847656 189.363281 235.003906 C 188.980469 235.164062 188.585938 235.242188 188.171875 235.242188 C 187.757812 235.242188 187.363281 235.164062 186.980469 235.003906 C 186.601562 234.847656 186.265625 234.621094 185.972656 234.328125 C 185.679688 234.039062 185.457031 233.699219 185.300781 233.320312 C 185.144531 232.9375 185.0625 232.542969 185.066406 232.128906 L 185.066406 213.496094 C 185.066406 213 185.179688 212.527344 185.40625 212.085938 C 185.632812 211.640625 185.945312 211.273438 186.347656 210.980469 L 202.507812 199.269531 C 202.515625 199.261719 202.519531 199.257812 202.53125 199.253906 C 202.847656 199.027344 203.195312 198.867188 203.570312 198.769531 C 203.949219 198.675781 204.328125 198.648438 204.714844 198.699219 C 205.101562 198.746094 205.464844 198.859375 205.808594 199.046875 C 206.152344 199.230469 206.449219 199.46875 206.699219 199.765625 C 206.953125 200.0625 207.144531 200.394531 207.269531 200.761719 C 207.398438 201.128906 207.453125 201.507812 207.4375 201.898438 C 207.425781 202.285156 207.339844 202.65625 207.183594 203.015625 C 207.03125 203.371094 206.816406 203.6875 206.539062 203.964844 Z M 206.539062 203.960938 " fill-opacity="1" fill-rule="nonzero"/><path fill="#000000" d="M 169.535156 337.75 L 169.535156 387.453125 C 169.535156 387.867188 169.457031 388.261719 169.300781 388.644531 C 169.140625 389.027344 168.917969 389.363281 168.625 389.65625 C 168.335938 389.945312 168 390.171875 167.617188 390.328125 C 167.238281 390.488281 166.839844 390.566406 166.425781 390.566406 C 166.015625 390.566406 165.617188 390.488281 165.238281 390.328125 C 164.855469 390.171875 164.519531 389.945312 164.230469 389.65625 C 163.9375 389.363281 163.714844 389.027344 163.554688 388.644531 C 163.398438 388.261719 163.320312 387.867188 163.320312 387.453125 L 163.320312 337.75 C 163.320312 337.339844 163.402344 336.945312 163.558594 336.566406 C 163.71875 336.183594 163.941406 335.847656 164.234375 335.558594 C 164.523438 335.269531 164.859375 335.042969 165.238281 334.886719 C 165.621094 334.730469 166.015625 334.652344 166.425781 334.652344 C 166.839844 334.652344 167.234375 334.730469 167.613281 334.886719 C 167.996094 335.042969 168.332031 335.269531 168.621094 335.558594 C 168.914062 335.847656 169.136719 336.183594 169.296875 336.566406 C 169.453125 336.945312 169.535156 337.339844 169.535156 337.75 Z M 169.535156 337.75 " fill-opacity="1" fill-rule="nonzero"/><path fill="#000000" d="M 206.847656 369.929688 C 206.609375 370.257812 206.3125 370.535156 205.964844 370.75 C 205.617188 370.964844 205.242188 371.105469 204.835938 371.171875 C 204.429688 371.238281 204.03125 371.222656 203.628906 371.128906 C 203.230469 371.039062 202.863281 370.871094 202.53125 370.632812 C 202.519531 370.628906 202.515625 370.625 202.507812 370.621094 L 186.347656 358.902344 C 185.945312 358.613281 185.632812 358.246094 185.40625 357.800781 C 185.179688 357.359375 185.066406 356.890625 185.066406 356.390625 L 185.066406 337.75 C 185.066406 337.339844 185.144531 336.945312 185.304688 336.566406 C 185.460938 336.183594 185.6875 335.847656 185.976562 335.558594 C 186.269531 335.269531 186.605469 335.042969 186.984375 334.886719 C 187.363281 334.730469 187.761719 334.652344 188.171875 334.652344 C 188.582031 334.652344 188.980469 334.730469 189.359375 334.886719 C 189.738281 335.042969 190.074219 335.269531 190.367188 335.558594 C 190.65625 335.847656 190.882812 336.183594 191.039062 336.566406 C 191.199219 336.945312 191.277344 337.339844 191.277344 337.75 L 191.277344 354.808594 L 206.15625 365.589844 C 206.492188 365.832031 206.765625 366.128906 206.980469 366.480469 C 207.195312 366.832031 207.335938 367.210938 207.402344 367.617188 C 207.46875 368.023438 207.453125 368.425781 207.355469 368.828125 C 207.261719 369.226562 207.089844 369.59375 206.847656 369.929688 Z M 206.847656 369.929688 " fill-opacity="1" fill-rule="nonzero"/><path fill="#000000" d="M 147.789062 337.75 L 147.789062 356.390625 C 147.789062 356.890625 147.675781 357.359375 147.449219 357.800781 C 147.222656 358.246094 146.910156 358.613281 146.507812 358.902344 L 130.34375 370.621094 C 130.339844 370.625 130.328125 370.628906 130.324219 370.632812 C 129.988281 370.875 129.621094 371.039062 129.222656 371.132812 C 128.820312 371.226562 128.417969 371.242188 128.011719 371.171875 C 127.605469 371.105469 127.226562 370.964844 126.878906 370.75 C 126.527344 370.53125 126.234375 370.257812 125.992188 369.921875 C 125.753906 369.585938 125.585938 369.21875 125.492188 368.820312 C 125.398438 368.417969 125.382812 368.015625 125.449219 367.609375 C 125.515625 367.203125 125.65625 366.824219 125.871094 366.476562 C 126.089844 366.125 126.363281 365.832031 126.695312 365.589844 L 141.578125 354.808594 L 141.578125 337.75 C 141.578125 337.339844 141.65625 336.941406 141.8125 336.5625 C 141.96875 336.183594 142.195312 335.847656 142.488281 335.554688 C 142.777344 335.261719 143.113281 335.039062 143.496094 334.882812 C 143.875 334.722656 144.269531 334.644531 144.683594 334.644531 C 145.09375 334.644531 145.492188 334.722656 145.871094 334.882812 C 146.253906 335.039062 146.589844 335.261719 146.878906 335.554688 C 147.171875 335.847656 147.394531 336.183594 147.554688 336.5625 C 147.710938 336.941406 147.789062 337.339844 147.789062 337.75 Z M 147.789062 337.75 " fill-opacity="1" fill-rule="nonzero"/><path fill="#000000" d="M 272.046875 284.941406 C 272.046875 285.351562 271.96875 285.75 271.8125 286.128906 C 271.65625 286.511719 271.429688 286.847656 271.140625 287.136719 C 270.847656 287.429688 270.511719 287.65625 270.132812 287.8125 C 269.75 287.96875 269.355469 288.050781 268.945312 288.050781 L 219.238281 288.050781 C 218.824219 288.050781 218.429688 287.96875 218.046875 287.8125 C 217.667969 287.65625 217.332031 287.429688 217.039062 287.140625 C 216.75 286.847656 216.523438 286.511719 216.367188 286.132812 C 216.207031 285.75 216.128906 285.355469 216.128906 284.941406 C 216.128906 284.53125 216.207031 284.132812 216.367188 283.753906 C 216.523438 283.375 216.75 283.039062 217.039062 282.746094 C 217.332031 282.453125 217.667969 282.230469 218.046875 282.074219 C 218.429688 281.914062 218.824219 281.835938 219.238281 281.835938 L 268.945312 281.835938 C 269.355469 281.835938 269.75 281.914062 270.132812 282.070312 C 270.511719 282.230469 270.847656 282.453125 271.140625 282.746094 C 271.429688 283.035156 271.65625 283.371094 271.8125 283.753906 C 271.96875 284.132812 272.046875 284.527344 272.046875 284.941406 Z M 272.046875 284.941406 " fill-opacity="1" fill-rule="nonzero"/><path fill="#000000" d="M 116.722656 284.941406 C 116.722656 285.351562 116.644531 285.75 116.484375 286.128906 C 116.328125 286.511719 116.105469 286.847656 115.8125 287.136719 C 115.523438 287.429688 115.1875 287.65625 114.804688 287.8125 C 114.425781 287.96875 114.027344 288.050781 113.617188 288.050781 L 63.910156 288.050781 C 63.808594 288.050781 63.703125 288.042969 63.601562 288.035156 C 63.21875 287.996094 62.855469 287.890625 62.511719 287.714844 C 62.167969 287.542969 61.867188 287.3125 61.609375 287.027344 C 61.351562 286.742188 61.152344 286.417969 61.011719 286.058594 C 60.875 285.699219 60.804688 285.328125 60.804688 284.941406 C 60.804688 284.558594 60.875 284.183594 61.011719 283.824219 C 61.152344 283.464844 61.351562 283.144531 61.609375 282.859375 C 61.867188 282.570312 62.167969 282.34375 62.511719 282.167969 C 62.855469 281.996094 63.21875 281.890625 63.601562 281.851562 C 63.703125 281.839844 63.808594 281.835938 63.910156 281.835938 L 113.617188 281.835938 C 114.03125 281.835938 114.425781 281.914062 114.808594 282.070312 C 115.1875 282.230469 115.523438 282.453125 115.8125 282.746094 C 116.105469 283.035156 116.328125 283.371094 116.484375 283.753906 C 116.644531 284.132812 116.722656 284.527344 116.722656 284.941406 Z M 116.722656 284.941406 " fill-opacity="1" fill-rule="nonzero"/><g clip-path="url(#71d25f4702)"><path fill="#000000" d="M 181.960938 166.894531 C 181.960938 167.914062 181.859375 168.925781 181.660156 169.925781 C 181.464844 170.925781 181.167969 171.894531 180.777344 172.839844 C 180.386719 173.78125 179.910156 174.675781 179.34375 175.523438 C 178.777344 176.371094 178.132812 177.15625 177.410156 177.878906 C 176.691406 178.597656 175.90625 179.242188 175.058594 179.808594 C 174.210938 180.375 173.3125 180.855469 172.371094 181.246094 C 171.429688 181.636719 170.457031 181.929688 169.457031 182.128906 C 168.457031 182.328125 167.449219 182.425781 166.429688 182.425781 C 165.40625 182.425781 164.398438 182.328125 163.398438 182.128906 C 162.398438 181.929688 161.425781 181.636719 160.484375 181.246094 C 159.542969 180.855469 158.648438 180.375 157.796875 179.808594 C 156.949219 179.242188 156.167969 178.597656 155.445312 177.878906 C 154.722656 177.15625 154.078125 176.371094 153.511719 175.523438 C 152.945312 174.675781 152.46875 173.78125 152.078125 172.839844 C 151.6875 171.894531 151.394531 170.925781 151.195312 169.925781 C 150.996094 168.925781 150.894531 167.914062 150.894531 166.894531 C 150.894531 165.875 150.996094 164.863281 151.195312 163.863281 C 151.394531 162.863281 151.6875 161.894531 152.078125 160.949219 C 152.46875 160.007812 152.945312 159.113281 153.511719 158.265625 C 154.078125 157.417969 154.722656 156.632812 155.445312 155.910156 C 156.167969 155.191406 156.949219 154.546875 157.796875 153.980469 C 158.648438 153.414062 159.542969 152.933594 160.484375 152.542969 C 161.425781 152.152344 162.398438 151.859375 163.398438 151.660156 C 164.398438 151.460938 165.40625 151.363281 166.429688 151.363281 C 167.449219 151.363281 168.457031 151.460938 169.457031 151.660156 C 170.457031 151.859375 171.429688 152.152344 172.371094 152.542969 C 173.3125 152.933594 174.210938 153.414062 175.058594 153.980469 C 175.90625 154.546875 176.691406 155.191406 177.410156 155.910156 C 178.132812 156.632812 178.777344 157.417969 179.34375 158.265625 C 179.910156 159.113281 180.386719 160.007812 180.777344 160.949219 C 181.167969 161.894531 181.464844 162.863281 181.660156 163.863281 C 181.859375 164.863281 181.960938 165.875 181.960938 166.894531 Z M 181.960938 166.894531 " fill-opacity="1" fill-rule="nonzero"/></g><path fill="#000000" d="M 132.257812 191.746094 C 132.257812 192.765625 132.15625 193.777344 131.957031 194.777344 C 131.757812 195.777344 131.464844 196.75 131.074219 197.691406 C 130.683594 198.632812 130.207031 199.527344 129.640625 200.375 C 129.070312 201.222656 128.429688 202.007812 127.707031 202.730469 C 126.984375 203.449219 126.203125 204.09375 125.351562 204.660156 C 124.503906 205.226562 123.609375 205.707031 122.667969 206.097656 C 121.726562 206.488281 120.753906 206.78125 119.753906 206.980469 C 118.753906 207.179688 117.742188 207.277344 116.722656 207.277344 C 115.703125 207.277344 114.695312 207.179688 113.695312 206.980469 C 112.695312 206.78125 111.722656 206.488281 110.78125 206.097656 C 109.835938 205.707031 108.941406 205.226562 108.09375 204.660156 C 107.246094 204.09375 106.460938 203.449219 105.742188 202.730469 C 105.019531 202.007812 104.375 201.222656 103.808594 200.375 C 103.242188 199.527344 102.765625 198.632812 102.375 197.691406 C 101.984375 196.75 101.6875 195.777344 101.488281 194.777344 C 101.289062 193.777344 101.191406 192.765625 101.191406 191.746094 C 101.191406 190.726562 101.289062 189.714844 101.488281 188.714844 C 101.6875 187.714844 101.984375 186.746094 102.375 185.800781 C 102.765625 184.859375 103.242188 183.964844 103.808594 183.117188 C 104.375 182.269531 105.019531 181.484375 105.742188 180.761719 C 106.460938 180.042969 107.246094 179.398438 108.09375 178.832031 C 108.941406 178.265625 109.835938 177.785156 110.78125 177.394531 C 111.722656 177.007812 112.695312 176.710938 113.695312 176.511719 C 114.695312 176.3125 115.703125 176.214844 116.722656 176.214844 C 117.742188 176.214844 118.753906 176.3125 119.753906 176.511719 C 120.753906 176.710938 121.726562 177.007812 122.667969 177.394531 C 123.609375 177.785156 124.503906 178.265625 125.351562 178.832031 C 126.203125 179.398438 126.984375 180.042969 127.707031 180.761719 C 128.429688 181.484375 129.070312 182.269531 129.640625 183.117188 C 130.207031 183.964844 130.683594 184.859375 131.074219 185.800781 C 131.464844 186.746094 131.757812 187.714844 131.957031 188.714844 C 132.15625 189.714844 132.257812 190.726562 132.257812 191.746094 Z M 132.257812 191.746094 " fill-opacity="1" fill-rule="nonzero"/><path fill="#000000" d="M 231.664062 191.746094 C 231.664062 192.765625 231.566406 193.777344 231.367188 194.777344 C 231.167969 195.777344 230.871094 196.75 230.480469 197.691406 C 230.089844 198.632812 229.613281 199.527344 229.046875 200.375 C 228.480469 201.222656 227.835938 202.007812 227.113281 202.730469 C 226.394531 203.449219 225.609375 204.09375 224.761719 204.660156 C 223.914062 205.226562 223.019531 205.707031 222.074219 206.097656 C 221.132812 206.488281 220.164062 206.78125 219.160156 206.980469 C 218.160156 207.179688 217.152344 207.277344 216.132812 207.277344 C 215.113281 207.277344 214.101562 207.179688 213.101562 206.980469 C 212.101562 206.78125 211.128906 206.488281 210.1875 206.097656 C 209.246094 205.707031 208.351562 205.226562 207.503906 204.660156 C 206.652344 204.09375 205.871094 203.449219 205.148438 202.730469 C 204.425781 202.007812 203.785156 201.222656 203.21875 200.375 C 202.648438 199.527344 202.171875 198.632812 201.78125 197.691406 C 201.390625 196.75 201.097656 195.777344 200.898438 194.777344 C 200.699219 193.777344 200.597656 192.765625 200.597656 191.746094 C 200.597656 190.726562 200.699219 189.714844 200.898438 188.714844 C 201.097656 187.714844 201.390625 186.746094 201.78125 185.800781 C 202.171875 184.859375 202.648438 183.964844 203.21875 183.117188 C 203.785156 182.269531 204.425781 181.484375 205.148438 180.761719 C 205.871094 180.042969 206.652344 179.398438 207.503906 178.832031 C 208.351562 178.265625 209.246094 177.785156 210.1875 177.394531 C 211.128906 177.007812 212.101562 176.710938 213.101562 176.511719 C 214.101562 176.3125 215.113281 176.214844 216.132812 176.214844 C 217.152344 176.214844 218.160156 176.3125 219.160156 176.511719 C 220.164062 176.710938 221.132812 177.007812 222.074219 177.394531 C 223.019531 177.785156 223.914062 178.265625 224.761719 178.832031 C 225.609375 179.398438 226.394531 180.042969 227.113281 180.761719 C 227.835938 181.484375 228.480469 182.269531 229.046875 183.117188 C 229.613281 183.964844 230.089844 184.859375 230.480469 185.800781 C 230.871094 186.746094 231.167969 187.714844 231.367188 188.714844 C 231.566406 189.714844 231.664062 190.726562 231.664062 191.746094 Z M 231.664062 191.746094 " fill-opacity="1" fill-rule="nonzero"/><g clip-path="url(#45ffba2ad3)"><path fill="#000000" d="M 181.960938 402.988281 C 181.960938 404.007812 181.859375 405.019531 181.660156 406.019531 C 181.464844 407.019531 181.167969 407.992188 180.777344 408.933594 C 180.386719 409.875 179.910156 410.769531 179.34375 411.617188 C 178.777344 412.464844 178.132812 413.25 177.410156 413.972656 C 176.691406 414.691406 175.90625 415.335938 175.058594 415.902344 C 174.210938 416.46875 173.3125 416.949219 172.371094 417.339844 C 171.429688 417.730469 170.457031 418.023438 169.457031 418.222656 C 168.457031 418.421875 167.449219 418.519531 166.429688 418.519531 C 165.40625 418.519531 164.398438 418.421875 163.398438 418.222656 C 162.398438 418.023438 161.425781 417.730469 160.484375 417.339844 C 159.542969 416.949219 158.648438 416.46875 157.796875 415.902344 C 156.949219 415.335938 156.167969 414.691406 155.445312 413.972656 C 154.722656 413.25 154.078125 412.464844 153.511719 411.617188 C 152.945312 410.769531 152.46875 409.875 152.078125 408.933594 C 151.6875 407.992188 151.394531 407.019531 151.195312 406.019531 C 150.996094 405.019531 150.894531 404.007812 150.894531 402.988281 C 150.894531 401.96875 150.996094 400.957031 151.195312 399.957031 C 151.394531 398.957031 151.6875 397.988281 152.078125 397.042969 C 152.46875 396.101562 152.945312 395.207031 153.511719 394.359375 C 154.078125 393.511719 154.722656 392.726562 155.445312 392.003906 C 156.167969 391.285156 156.949219 390.640625 157.796875 390.074219 C 158.648438 389.507812 159.542969 389.027344 160.484375 388.636719 C 161.425781 388.25 162.398438 387.953125 163.398438 387.753906 C 164.398438 387.554688 165.40625 387.457031 166.429688 387.457031 C 167.449219 387.457031 168.457031 387.554688 169.457031 387.753906 C 170.457031 387.953125 171.429688 388.25 172.371094 388.636719 C 173.3125 389.027344 174.210938 389.507812 175.058594 390.074219 C 175.90625 390.640625 176.691406 391.285156 177.410156 392.003906 C 178.132812 392.726562 178.777344 393.511719 179.34375 394.359375 C 179.910156 395.207031 180.386719 396.101562 180.777344 397.042969 C 181.167969 397.988281 181.464844 398.957031 181.660156 399.957031 C 181.859375 400.957031 181.960938 401.96875 181.960938 402.988281 Z M 181.960938 402.988281 " fill-opacity="1" fill-rule="nonzero"/></g><path fill="#000000" d="M 231.664062 378.136719 C 231.664062 379.15625 231.566406 380.167969 231.367188 381.167969 C 231.167969 382.167969 230.871094 383.136719 230.480469 384.082031 C 230.089844 385.023438 229.613281 385.917969 229.046875 386.765625 C 228.480469 387.613281 227.835938 388.398438 227.113281 389.121094 C 226.394531 389.839844 225.609375 390.484375 224.761719 391.050781 C 223.914062 391.617188 223.019531 392.097656 222.074219 392.488281 C 221.132812 392.878906 220.164062 393.171875 219.160156 393.371094 C 218.160156 393.570312 217.152344 393.667969 216.132812 393.667969 C 215.113281 393.667969 214.101562 393.570312 213.101562 393.371094 C 212.101562 393.171875 211.128906 392.878906 210.1875 392.488281 C 209.246094 392.097656 208.351562 391.617188 207.503906 391.050781 C 206.652344 390.484375 205.871094 389.839844 205.148438 389.121094 C 204.425781 388.398438 203.785156 387.613281 203.21875 386.765625 C 202.648438 385.917969 202.171875 385.023438 201.78125 384.082031 C 201.390625 383.136719 201.097656 382.167969 200.898438 381.167969 C 200.699219 380.167969 200.597656 379.15625 200.597656 378.136719 C 200.597656 377.117188 200.699219 376.105469 200.898438 375.105469 C 201.097656 374.105469 201.390625 373.136719 201.78125 372.191406 C 202.171875 371.25 202.648438 370.355469 203.21875 369.507812 C 203.785156 368.660156 204.425781 367.875 205.148438 367.152344 C 205.871094 366.433594 206.652344 365.789062 207.503906 365.222656 C 208.351562 364.65625 209.246094 364.175781 210.1875 363.785156 C 211.128906 363.394531 212.101562 363.101562 213.101562 362.902344 C 214.101562 362.703125 215.113281 362.605469 216.132812 362.605469 C 217.152344 362.605469 218.160156 362.703125 219.160156 362.902344 C 220.164062 363.101562 221.132812 363.394531 222.074219 363.785156 C 223.019531 364.175781 223.914062 364.65625 224.761719 365.222656 C 225.609375 365.789062 226.394531 366.433594 227.113281 367.152344 C 227.835938 367.875 228.480469 368.660156 229.046875 369.507812 C 229.613281 370.355469 230.089844 371.25 230.480469 372.191406 C 230.871094 373.136719 231.167969 374.105469 231.367188 375.105469 C 231.566406 376.105469 231.664062 377.117188 231.664062 378.136719 Z M 231.664062 378.136719 " fill-opacity="1" fill-rule="nonzero"/><path fill="#000000" d="M 132.257812 378.136719 C 132.257812 379.15625 132.15625 380.167969 131.957031 381.167969 C 131.757812 382.167969 131.464844 383.136719 131.074219 384.082031 C 130.683594 385.023438 130.207031 385.917969 129.640625 386.765625 C 129.070312 387.613281 128.429688 388.398438 127.707031 389.121094 C 126.984375 389.839844 126.203125 390.484375 125.351562 391.050781 C 124.503906 391.617188 123.609375 392.097656 122.667969 392.488281 C 121.726562 392.878906 120.753906 393.171875 119.753906 393.371094 C 118.753906 393.570312 117.742188 393.667969 116.722656 393.667969 C 115.703125 393.667969 114.695312 393.570312 113.695312 393.371094 C 112.695312 393.171875 111.722656 392.878906 110.78125 392.488281 C 109.835938 392.097656 108.941406 391.617188 108.09375 391.050781 C 107.246094 390.484375 106.460938 389.839844 105.742188 389.121094 C 105.019531 388.398438 104.375 387.613281 103.808594 386.765625 C 103.242188 385.917969 102.765625 385.023438 102.375 384.082031 C 101.984375 383.136719 101.6875 382.167969 101.488281 381.167969 C 101.289062 380.167969 101.191406 379.15625 101.191406 378.136719 C 101.191406 377.117188 101.289062 376.105469 101.488281 375.105469 C 101.6875 374.105469 101.984375 373.136719 102.375 372.191406 C 102.765625 371.25 103.242188 370.355469 103.808594 369.507812 C 104.375 368.660156 105.019531 367.875 105.742188 367.152344 C 106.460938 366.433594 107.246094 365.789062 108.09375 365.222656 C 108.941406 364.65625 109.835938 364.175781 110.78125 363.785156 C 111.722656 363.394531 112.695312 363.101562 113.695312 362.902344 C 114.695312 362.703125 115.703125 362.605469 116.722656 362.605469 C 117.742188 362.605469 118.753906 362.703125 119.753906 362.902344 C 120.753906 363.101562 121.726562 363.394531 122.667969 363.785156 C 123.609375 364.175781 124.503906 364.65625 125.351562 365.222656 C 126.203125 365.789062 126.984375 366.433594 127.707031 367.152344 C 128.429688 367.875 129.070312 368.660156 129.640625 369.507812 C 130.207031 370.355469 130.683594 371.25 131.074219 372.191406 C 131.464844 373.136719 131.757812 374.105469 131.957031 375.105469 C 132.15625 376.105469 132.257812 377.117188 132.257812 378.136719 Z M 132.257812 378.136719 " fill-opacity="1" fill-rule="nonzero"/><g clip-path="url(#9461e2d6af)"><path fill="#000000" d="M 300.007812 284.941406 C 300.007812 285.960938 299.90625 286.972656 299.707031 287.972656 C 299.511719 288.972656 299.214844 289.945312 298.824219 290.886719 C 298.433594 291.828125 297.957031 292.722656 297.390625 293.570312 C 296.824219 294.417969 296.179688 295.203125 295.457031 295.925781 C 294.738281 296.644531 293.953125 297.289062 293.105469 297.855469 C 292.257812 298.421875 291.359375 298.902344 290.417969 299.292969 C 289.476562 299.683594 288.503906 299.976562 287.503906 300.175781 C 286.503906 300.375 285.496094 300.472656 284.476562 300.472656 C 283.453125 300.472656 282.445312 300.375 281.445312 300.175781 C 280.445312 299.976562 279.472656 299.683594 278.53125 299.292969 C 277.589844 298.902344 276.695312 298.421875 275.84375 297.855469 C 274.996094 297.289062 274.214844 296.644531 273.492188 295.925781 C 272.769531 295.203125 272.125 294.417969 271.558594 293.570312 C 270.992188 292.722656 270.515625 291.828125 270.125 290.886719 C 269.734375 289.945312 269.441406 288.972656 269.242188 287.972656 C 269.042969 286.972656 268.941406 285.960938 268.941406 284.941406 C 268.941406 283.921875 269.042969 282.910156 269.242188 281.910156 C 269.441406 280.910156 269.734375 279.941406 270.125 278.996094 C 270.515625 278.054688 270.992188 277.160156 271.558594 276.3125 C 272.125 275.464844 272.769531 274.679688 273.492188 273.957031 C 274.214844 273.238281 274.996094 272.59375 275.84375 272.027344 C 276.695312 271.460938 277.589844 270.980469 278.53125 270.589844 C 279.472656 270.203125 280.445312 269.90625 281.445312 269.707031 C 282.445312 269.507812 283.453125 269.410156 284.476562 269.410156 C 285.496094 269.410156 286.503906 269.507812 287.503906 269.707031 C 288.503906 269.90625 289.476562 270.203125 290.417969 270.589844 C 291.359375 270.980469 292.257812 271.460938 293.105469 272.027344 C 293.953125 272.59375 294.738281 273.238281 295.457031 273.957031 C 296.179688 274.679688 296.824219 275.464844 297.390625 276.3125 C 297.957031 277.160156 298.433594 278.054688 298.824219 278.996094 C 299.214844 279.941406 299.511719 280.910156 299.707031 281.910156 C 299.90625 282.910156 300.007812 283.921875 300.007812 284.941406 Z M 300.007812 284.941406 " fill-opacity="1" fill-rule="nonzero"/></g><g clip-path="url(#477da88bc1)"><path fill="#000000" d="M 63.914062 284.941406 C 63.914062 285.960938 63.8125 286.972656 63.613281 287.972656 C 63.414062 288.972656 63.121094 289.945312 62.730469 290.886719 C 62.339844 291.828125 61.863281 292.722656 61.296875 293.570312 C 60.730469 294.417969 60.085938 295.203125 59.363281 295.925781 C 58.644531 296.644531 57.859375 297.289062 57.011719 297.855469 C 56.164062 298.421875 55.265625 298.902344 54.324219 299.292969 C 53.382812 299.683594 52.410156 299.976562 51.410156 300.175781 C 50.410156 300.375 49.402344 300.472656 48.378906 300.472656 C 47.359375 300.472656 46.351562 300.375 45.351562 300.175781 C 44.351562 299.976562 43.378906 299.683594 42.4375 299.292969 C 41.496094 298.902344 40.597656 298.421875 39.75 297.855469 C 38.902344 297.289062 38.117188 296.644531 37.398438 295.925781 C 36.675781 295.203125 36.03125 294.417969 35.464844 293.570312 C 34.898438 292.722656 34.421875 291.828125 34.03125 290.886719 C 33.640625 289.945312 33.347656 288.972656 33.148438 287.972656 C 32.949219 286.972656 32.847656 285.960938 32.847656 284.941406 C 32.847656 283.921875 32.949219 282.910156 33.148438 281.910156 C 33.347656 280.910156 33.640625 279.941406 34.03125 278.996094 C 34.421875 278.054688 34.898438 277.160156 35.464844 276.3125 C 36.03125 275.464844 36.675781 274.679688 37.398438 273.957031 C 38.117188 273.238281 38.902344 272.59375 39.75 272.027344 C 40.597656 271.460938 41.496094 270.980469 42.4375 270.589844 C 43.378906 270.203125 44.351562 269.90625 45.351562 269.707031 C 46.351562 269.507812 47.359375 269.410156 48.378906 269.410156 C 49.402344 269.410156 50.410156 269.507812 51.410156 269.707031 C 52.410156 269.90625 53.382812 270.203125 54.324219 270.589844 C 55.265625 270.980469 56.164062 271.460938 57.011719 272.027344 C 57.859375 272.59375 58.644531 273.238281 59.363281 273.957031 C 60.085938 274.679688 60.730469 275.464844 61.296875 276.3125 C 61.863281 277.160156 62.339844 278.054688 62.730469 278.996094 C 63.121094 279.941406 63.414062 280.910156 63.613281 281.910156 C 63.8125 282.910156 63.914062 283.921875 63.914062 284.941406 Z M 63.914062 284.941406 " fill-opacity="1" fill-rule="nonzero"/></g><g mask="url(#cf18b5caad)"><g transform="matrix(1, 0, 0, 1, 107, 226)"><g clip-path="url(#e0371977bd)"><g clip-path="url(#0b2e89e492)"><path fill="#000000" d="M 112.238281 40.300781 L 112.238281 55.835938 L 117.605469 55.835938 L 117.605469 62.050781 L 112.238281 62.050781 L 112.238281 77.582031 L 117.605469 77.582031 L 117.605469 83.792969 L 112.238281 83.792969 L 112.238281 101.925781 C 112.238281 102.570312 112.171875 103.210938 112.046875 103.84375 C 111.921875 104.476562 111.734375 105.089844 111.488281 105.6875 C 111.242188 106.28125 110.9375 106.847656 110.582031 107.386719 C 110.222656 107.921875 109.816406 108.417969 109.359375 108.875 C 108.902344 109.332031 108.40625 109.738281 107.871094 110.097656 C 107.332031 110.453125 106.765625 110.757812 106.171875 111.003906 C 105.574219 111.25 104.960938 111.4375 104.328125 111.5625 C 103.695312 111.6875 103.054688 111.75 102.410156 111.75 L 84.277344 111.75 L 84.277344 117.113281 L 78.066406 117.113281 L 78.066406 111.75 L 62.535156 111.75 L 62.535156 117.113281 L 56.320312 117.113281 L 56.320312 111.75 L 40.789062 111.75 L 40.789062 117.113281 L 34.578125 117.113281 L 34.578125 111.75 L 29.214844 111.75 L 6.617188 89.160156 L 6.617188 83.792969 L 1.25 83.792969 L 1.25 77.582031 L 6.617188 77.582031 L 6.617188 62.050781 L 1.25 62.050781 L 1.25 55.835938 L 6.617188 55.835938 L 6.617188 40.300781 L 1.25 40.300781 L 1.25 34.09375 L 6.617188 34.09375 L 6.617188 15.960938 C 6.617188 15.3125 6.679688 14.675781 6.808594 14.042969 C 6.933594 13.410156 7.117188 12.792969 7.367188 12.199219 C 7.613281 11.601562 7.914062 11.035156 8.273438 10.5 C 8.632812 9.960938 9.039062 9.464844 9.496094 9.007812 C 9.953125 8.554688 10.449219 8.144531 10.984375 7.785156 C 11.519531 7.429688 12.085938 7.125 12.683594 6.878906 C 13.277344 6.632812 13.894531 6.445312 14.527344 6.320312 C 15.160156 6.191406 15.796875 6.128906 16.445312 6.128906 L 34.578125 6.128906 L 34.578125 0.765625 L 40.789062 0.765625 L 40.789062 6.128906 L 56.320312 6.128906 L 56.320312 0.765625 L 62.535156 0.765625 L 62.535156 6.128906 L 78.066406 6.128906 L 78.066406 0.765625 L 84.277344 0.765625 L 84.277344 6.128906 L 102.410156 6.128906 C 103.054688 6.128906 103.695312 6.191406 104.328125 6.320312 C 104.960938 6.445312 105.574219 6.632812 106.171875 6.878906 C 106.769531 7.125 107.335938 7.429688 107.871094 7.785156 C 108.40625 8.144531 108.902344 8.554688 109.359375 9.007812 C 109.816406 9.464844 110.222656 9.960938 110.582031 10.5 C 110.941406 11.035156 111.242188 11.601562 111.488281 12.199219 C 111.734375 12.792969 111.921875 13.410156 112.046875 14.042969 C 112.171875 14.675781 112.238281 15.3125 112.238281 15.960938 L 112.238281 34.09375 L 117.605469 34.09375 L 117.605469 40.300781 Z M 112.238281 40.300781 " fill-opacity="1" fill-rule="nonzero"/></g></g></g></g><path fill="#000000" d="M 219.238281 241.953125 L 219.238281 327.925781 C 219.238281 328.570312 219.171875 329.210938 219.046875 329.84375 C 218.921875 330.476562 218.734375 331.089844 218.488281 331.6875 C 218.242188 332.28125 217.9375 332.847656 217.582031 333.386719 C 217.222656 333.921875 216.816406 334.417969 216.359375 334.875 C 215.902344 335.332031 215.40625 335.738281 214.871094 336.097656 C 214.332031 336.453125 213.765625 336.757812 213.171875 337.003906 C 212.574219 337.25 211.960938 337.4375 211.328125 337.5625 C 210.695312 337.6875 210.054688 337.75 209.410156 337.75 L 139.984375 337.75 C 138.777344 337.75 137.617188 337.519531 136.5 337.058594 C 135.386719 336.597656 134.402344 335.941406 133.546875 335.085938 L 116.285156 317.828125 C 115.433594 316.972656 114.773438 315.988281 114.3125 314.875 C 113.851562 313.761719 113.621094 312.597656 113.621094 311.390625 L 113.621094 241.960938 C 113.621094 241.3125 113.683594 240.675781 113.808594 240.042969 C 113.933594 239.410156 114.121094 238.792969 114.367188 238.199219 C 114.613281 237.601562 114.917969 237.035156 115.277344 236.496094 C 115.636719 235.960938 116.042969 235.464844 116.5 235.007812 C 116.957031 234.550781 117.453125 234.144531 117.988281 233.785156 C 118.523438 233.425781 119.089844 233.125 119.6875 232.878906 C 120.285156 232.628906 120.898438 232.445312 121.53125 232.316406 C 122.164062 232.191406 122.804688 232.128906 123.449219 232.128906 L 209.414062 232.128906 C 210.058594 232.128906 210.695312 232.191406 211.328125 232.316406 C 211.960938 232.445312 212.574219 232.628906 213.171875 232.878906 C 213.769531 233.125 214.335938 233.425781 214.871094 233.785156 C 215.40625 234.144531 215.902344 234.550781 216.359375 235.007812 C 216.816406 235.464844 217.222656 235.960938 217.582031 236.496094 C 217.9375 237.03125 218.242188 237.597656 218.488281 238.195312 C 218.734375 238.789062 218.921875 239.40625 219.046875 240.039062 C 219.171875 240.671875 219.238281 241.308594 219.238281 241.953125 Z M 219.238281 241.953125 " fill-opacity="1" fill-rule="nonzero"/><path fill="#000000" d="M 213.425781 246.683594 L 213.425781 323.195312 C 213.425781 323.769531 213.367188 324.339844 213.257812 324.902344 C 213.144531 325.464844 212.980469 326.011719 212.757812 326.542969 C 212.539062 327.074219 212.269531 327.578125 211.949219 328.054688 C 211.632812 328.53125 211.269531 328.972656 210.863281 329.378906 C 210.457031 329.785156 210.015625 330.148438 209.539062 330.464844 C 209.0625 330.785156 208.558594 331.054688 208.027344 331.273438 C 207.496094 331.492188 206.949219 331.660156 206.386719 331.773438 C 205.824219 331.882812 205.253906 331.941406 204.679688 331.941406 L 142.894531 331.941406 C 141.820312 331.941406 140.785156 331.734375 139.792969 331.324219 C 138.800781 330.914062 137.925781 330.328125 137.167969 329.566406 L 121.804688 314.207031 C 121.042969 313.449219 120.457031 312.574219 120.046875 311.582031 C 119.636719 310.589844 119.429688 309.554688 119.429688 308.480469 L 119.429688 246.691406 C 119.429688 246.113281 119.488281 245.546875 119.597656 244.984375 C 119.710938 244.417969 119.878906 243.871094 120.097656 243.339844 C 120.316406 242.8125 120.585938 242.308594 120.90625 241.828125 C 121.226562 241.351562 121.585938 240.910156 121.992188 240.503906 C 122.398438 240.097656 122.839844 239.734375 123.320312 239.414062 C 123.796875 239.097656 124.300781 238.828125 124.832031 238.609375 C 125.363281 238.386719 125.910156 238.222656 126.472656 238.109375 C 127.035156 237.996094 127.605469 237.941406 128.179688 237.941406 L 204.679688 237.941406 C 205.253906 237.941406 205.824219 237.996094 206.386719 238.109375 C 206.949219 238.222656 207.496094 238.386719 208.027344 238.605469 C 208.558594 238.828125 209.0625 239.097656 209.539062 239.414062 C 210.015625 239.734375 210.457031 240.097656 210.863281 240.503906 C 211.269531 240.910156 211.632812 241.351562 211.949219 241.828125 C 212.269531 242.304688 212.539062 242.808594 212.757812 243.339844 C 212.980469 243.871094 213.144531 244.417969 213.257812 244.980469 C 213.367188 245.542969 213.425781 246.113281 213.425781 246.683594 Z M 213.425781 246.683594 " fill-opacity="1" fill-rule="nonzero"/><g mask="url(#ab3da20f16)"><g transform="matrix(1, 0, 0, 1, 119, 237)"><g clip-path="url(#0a56bc42bd)"><g clip-path="url(#ad1395b425)"><path fill="#000000" d="M 4.082031 75.128906 L 4.082031 13.339844 C 4.082031 12.765625 4.136719 12.195312 4.25 11.632812 C 4.359375 11.070312 4.527344 10.523438 4.746094 9.992188 C 4.96875 9.460938 5.238281 8.957031 5.554688 8.480469 C 5.875 8.003906 6.238281 7.558594 6.644531 7.152344 C 7.050781 6.746094 7.492188 6.386719 7.96875 6.066406 C 8.445312 5.746094 8.949219 5.476562 9.480469 5.257812 C 10.011719 5.039062 10.558594 4.871094 11.121094 4.761719 C 11.6875 4.648438 12.253906 4.59375 12.828125 4.59375 L 89.332031 4.59375 C 90.773438 4.589844 92.132812 4.929688 93.410156 5.605469 C 93.039062 4.902344 92.582031 4.261719 92.035156 3.683594 C 91.488281 3.101562 90.875 2.609375 90.195312 2.199219 C 89.511719 1.785156 88.789062 1.476562 88.023438 1.261719 C 87.257812 1.046875 86.476562 0.941406 85.679688 0.941406 L 9.179688 0.941406 C 8.605469 0.941406 8.035156 0.996094 7.472656 1.109375 C 6.910156 1.222656 6.363281 1.386719 5.832031 1.609375 C 5.300781 1.828125 4.796875 2.097656 4.320312 2.417969 C 3.839844 2.734375 3.398438 3.097656 2.992188 3.503906 C 2.585938 3.910156 2.226562 4.351562 1.90625 4.828125 C 1.585938 5.308594 1.316406 5.8125 1.097656 6.34375 C 0.878906 6.871094 0.710938 7.421875 0.597656 7.984375 C 0.488281 8.546875 0.429688 9.117188 0.429688 9.691406 L 0.429688 71.480469 C 0.429688 72.554688 0.636719 73.589844 1.046875 74.582031 C 1.457031 75.574219 2.042969 76.449219 2.804688 77.207031 L 6.445312 80.851562 C 5.6875 80.089844 5.105469 79.214844 4.695312 78.226562 C 4.285156 77.234375 4.082031 76.203125 4.082031 75.128906 Z M 4.082031 75.128906 " fill-opacity="1" fill-rule="nonzero"/></g></g></g></g></svg>